<svg xmlns="http://www.w3.org/2000/svg" viewBox="0 0 1000 1000"><style>.st0{fill:#7dbad8}.st1{fill:#fff}.st2{fill:#3fa9f5}.st3{fill:#ff931e}.st4{fill:gray}.st5{fill:none;stroke:#fff;stroke-width:10;stroke-linecap:round;stroke-linejoin:round;stroke-miterlimit:10}.st6{fill:#ed5299}.st7{fill:#27b691}.st10,.st8,.st9{fill:none;stroke:#fff;stroke-width:13;stroke-miterlimit:10}.st10,.st9{stroke-width:6}.st10{stroke:#999}</style><g id="Layer_1"><path class="st0" d="M952.6 972.6H47.4c-11 0-20-9-20-20V122.7h945.1v829.9c.1 11-8.9 20-19.9 20z"/><path d="M972.6 122.7H27.4V47.4c0-11 9-20 20-20h905.1c11 0 20 9 20 20v75.3z"/><circle class="st1" cx="81.9" cy="75.3" r="17"/><circle class="st2" cx="128.2" cy="75.3" r="17"/><circle class="st3" cx="172.6" cy="75.3" r="17"/><path class="st4" d="M376 600.1V620h-45v42.5l-46 46.9V788h-90v38h46.5l-42.6 41.8 30.3 30 48.8-49 20.3 20.3-45.9 46.2 12.3 12.7H391v-37h77v-45h67v-32h148v-84.7l29-28.6V583l-18-17.7V442h35v-43h42v-87h-35.2l22.7-22.2-91.3-90.8H625l-33.6 32.5-17.5-18.1 29.3-28.9-25.1-24.5H549v21h-41v25h-59.1L413 239.3v44L391.4 308H468v43h-63v43h-51v14h-18v-22h-89v53.6l36 35V494h-55.7L327 595h49z"/><path class="st5" d="M400.5 793.7c245.5 0 249.8-249.8 249.8-249.8M370.5 528.4c48.8 14.2 162 49.5 279.8 15.5 0 0-28.3-150.2 19.9-208.3M582 720.9s1.8 41.4 59.9 59.9"/><path class="st5" d="M623.6 655.9S499 725.8 370.5 682.4c0 0-55.8 59.1 20.8 111.3"/><path class="st1" d="M863 666c1.9 0 1.9-3 0-3s-1.9 3 0 3z"/></g><g id="Layer_2"><circle class="st6" cx="410.8" cy="826.6" r="14.2"/><circle class="st6" cx="425" cy="869.2" r="14.2"/><circle class="st6" cx="623.4" cy="614.9" r="14.2"/><circle class="st6" cx="665" cy="574.3" r="14.2"/><circle class="st6" cx="664.1" cy="528" r="14.2"/><circle class="st6" cx="628.2" cy="528" r="14.2"/><circle class="st6" cx="628.2" cy="583.7" r="14.2"/><circle class="st6" cx="365.4" cy="560.1" r="14.2"/><circle class="st6" cx="482.6" cy="521.4" r="14.2"/><circle class="st6" cx="678.3" cy="499.6" r="14.2"/><circle class="st7" cx="637.6" cy="499.6" r="14.2"/><circle class="st7" cx="567.7" cy="736.9" r="14.2"/><circle class="st7" cx="645.2" cy="558.2" r="14.2"/><circle class="st7" cx="612.1" cy="558.2" r="14.2"/><circle class="st7" cx="487.3" cy="432.5" r="14.2"/><circle class="st7" cx="525.2" cy="592.2" r="14.2"/><circle class="st7" cx="370.1" cy="485.4" r="14.2"/><circle class="st7" cx="428.7" cy="583.7" r="14.2"/><circle class="st7" cx="318.2" cy="439.1" r="14.2"/><circle class="st7" cx="425" cy="682" r="14.2"/><circle class="st7" cx="651.8" cy="606.4" r="14.2"/><circle class="st7" cx="304" cy="826.6" r="14.2"/><circle class="st7" cx="400.4" cy="855" r="14.2"/><circle class="st7" cx="482.6" cy="826.6" r="14.2"/></g><g id="Layer_3"><path class="st3" d="M541.5 283H424.6c-5.5 0-9.6 4.2-9.6 9.7v82.9c0 6.6 5 12.4 11.6 12.4h28.8l27.3 27.3L510 388h31.6c6.6 0 12.5-5.8 12.5-12.4v-80.9c-.1-6.6-6-11.7-12.6-11.7z"/><path d="M554 317v-22.3c0-6.6-5.9-11.7-12.5-11.7H424.6c-5.5 0-9.6 4.2-9.6 9.7V317"/><path class="st8" d="M424 299.5h107"/><path class="st9" d="M424 334h107"/><path class="st10" d="M424 343h78M424 353h78M424 363h78"/></g></svg>