<svg id="Layer_1" data-name="Layer 1" xmlns="http://www.w3.org/2000/svg" viewBox="0 0 459.89 213.6"><path fill="#d02128" d="M16.51 12.74h427.92v178H16.51z"/><path d="M146.51 74.8c0 26.2-17.6 40.4-37.6 42.8a165.2 165.2 0 0 1-20.6 1h-18.4V169h-31.4V31h49.8a165.29 165.29 0 0 1 20.6 1c20.6 2.4 37.6 16.6 37.6 42.8zm-32.8 0c0-11.8-6.2-17.6-15.6-18.8a87.17 87.17 0 0 0-11-.4h-17.2V94h17.2a87.28 87.28 0 0 0 11-.4c9.4-1.2 15.6-7 15.6-18.8zm174.4 94.2h-31.2v-55.4h-60.4V169h-31.4V31h31.4v58h60.4V31h31.2zm142.6 0h-34.2a117.46 117.46 0 0 1-6.6-29.4c-1.8-15-7.6-23.8-18-24.6-3.8-.2-7.2-.2-11-.2h-12.4V169h-31.4V31h52.4a170.62 170.62 0 0 1 20.8 1c20 2.4 36.6 12.4 36.6 36.6 0 17.6-10 29-27.4 34 14 5.2 19.4 16.2 21 32.2 1.8 16.2 4.6 26.2 10.2 34.2zm-66-77.2c4.4 0 7.8 0 10.6-.2 10.2-1 18.8-5.4 18.8-18s-7.4-16.6-17.6-17.8c-2.8-.2-6.2-.4-10.6-.4h-17.4v36.4z" fill="#fff"/></svg>