<svg id="Layer_1" data-name="Layer 1" xmlns="http://www.w3.org/2000/svg" viewBox="0 0 744 213.6"><defs><style>.cls-1{fill:#d02128}.cls-2{fill:#fff}.cls-3{fill:#382f2f}</style></defs><title>outlined version</title><path class="cls-1" d="M16.51 12.74h427.92v178H16.51z"/><path class="cls-2" d="M146.51 74.8c0 26.2-17.6 40.4-37.6 42.8a165.2 165.2 0 0 1-20.6 1h-18.4V169h-31.4V31h49.8a165.29 165.29 0 0 1 20.6 1c20.6 2.4 37.6 16.6 37.6 42.8zm-32.8 0c0-11.8-6.2-17.6-15.6-18.8a87.17 87.17 0 0 0-11-.4h-17.2V94h17.2a87.28 87.28 0 0 0 11-.4c9.4-1.2 15.6-7 15.6-18.8zm174.4 94.2h-31.2v-55.4h-60.4V169h-31.4V31h31.4v58h60.4V31h31.2zm142.6 0h-34.2a117.46 117.46 0 0 1-6.6-29.4c-1.8-15-7.6-23.8-18-24.6-3.8-.2-7.2-.2-11-.2h-12.4V169h-31.4V31h52.4a170.62 170.62 0 0 1 20.8 1c20 2.4 36.6 12.4 36.6 36.6 0 17.6-10 29-27.4 34 14 5.2 19.4 16.2 21 32.2 1.8 16.2 4.6 26.2 10.2 34.2zm-66-77.2c4.4 0 7.8 0 10.6-.2 10.2-1 18.8-5.4 18.8-18s-7.4-16.6-17.6-17.8c-2.8-.2-6.2-.4-10.6-.4h-17.4v36.4z"/><path class="cls-3" d="M497.82 42.47c0 7.32-5.27 11.52-11.7 12.3a48.31 48.31 0 0 1-6 .24h-7.46v16.32h-7.07V29.94h14.53a48.22 48.22 0 0 1 6 .24c6.95.82 11.7 4.97 11.7 12.29zm-7.46 0c0-4.38-2.51-6.42-5.59-7a31.3 31.3 0 0 0-4.5-.24h-7.65v14.4h7.65a31.38 31.38 0 0 0 4.5-.24c3.09-.5 5.6-2.54 5.6-6.92zm31.77 24.24l-1.74 3.42a15.51 15.51 0 0 1-8.49 2c-6 0-11-3.24-11-9.18 0-7.08 6-10.92 19-10.92h2.19v-.78a31.4 31.4 0 0 0-.13-3.48c-.19-2.58-1.93-4.38-6-4.38s-6.24 2.16-6.62 6.12h-7.07c.45-7 6-10.92 13.82-10.92 8.81 0 12.28 3.48 12.86 8.88.13 1.32.19 3 .19 4.5v11.26a51.51 51.51 0 0 0 .64 8.1h-7zm-.06-7.32v-2.94c-8.29-.6-13.7 1.14-13.7 6 0 3.36 2.38 4.92 6.11 4.92 4.43 0 7.58-2.82 7.58-7.98zm46.41-6v17.94h-7.07V54.11c0-1.5 0-2.88-.13-4.5-.32-3.6-2.38-6.12-7.2-6.12s-8.87 3.6-8.87 13.56v14.28h-7.07V39.47h7.07v5.28l2.32-3.66a13.5 13.5 0 0 1 8.62-2.46c7.33 0 11.51 3.54 12.15 9.12.12 1.62.18 3.06.18 5.64zm27.65 13.32l-1.74 3.42a15.51 15.51 0 0 1-8.49 2c-6 0-11-3.24-11-9.18 0-7.08 6-10.92 19-10.92h2.19v-.78a31.64 31.64 0 0 0-.13-3.48c-.19-2.58-1.93-4.38-6-4.38s-6.24 2.16-6.62 6.12h-7.07c.45-7 6-10.92 13.83-10.92 8.81 0 12.28 3.48 12.86 8.88.13 1.32.19 3 .19 4.5v11.26a51.52 51.52 0 0 0 .64 8.1h-7zm-.06-7.32v-2.94c-8.29-.6-13.7 1.14-13.7 6 0 3.36 2.38 4.92 6.11 4.92 4.43 0 7.58-2.82 7.58-7.98zM641 50.51h-7.14c-1-4.86-3.79-7.08-8-7.08-5 0-8.87 3.66-8.87 11.64 0 8.64 3.86 12.3 8.62 12.3 4.05 0 6.94-2.28 8-6.6h7.2c-1.61 7.62-7.52 11.4-15.56 11.4-8.94 0-15.69-5.28-15.69-16.62 0-10.86 7.59-16.92 16.53-16.92 8.62 0 14.08 4.86 14.91 11.88zm35.37 6.72h-24.5c.58 7.62 4.31 10.14 8.94 10.14 4.12 0 7.33-2.34 8-6.36H676c-1.48 7.56-8 11.16-15.43 11.16-9.13 0-16-5.4-16-16.68 0-10.08 6.88-16.86 16.72-16.86s15.24 7 15.24 16a22.2 22.2 0 0 1-.16 2.6zm-24.43-4.62h17.3c-.51-5.88-3.28-9.18-8.23-9.18s-8.3 3.06-9.08 9.18zm50.34 14.1l-1.74 3.42a15.51 15.51 0 0 1-8.49 2c-6 0-11-3.24-11-9.18 0-7.08 6-10.92 19-10.92h2.19v-.78a31.4 31.4 0 0 0-.13-3.48c-.19-2.58-1.93-4.38-6-4.38s-6.24 2.16-6.62 6.12h-7.07c.45-7 6-10.92 13.83-10.92 8.81 0 12.28 3.48 12.86 8.88.13 1.32.19 3 .19 4.5v11.26a51.62 51.62 0 0 0 .64 8.1h-7zm-.06-7.32v-2.94c-8.29-.6-13.7 1.14-13.7 6 0 3.36 2.38 4.92 6.11 4.92 4.43 0 7.58-2.82 7.58-7.98zm-199.83 59.94h-7v-17.64h-22.77v17.64h-7.07V77.94h7.07v18.41h22.76V77.94h7zm38.32-14.1h-24.5c.58 7.62 4.31 10.14 8.94 10.14 4.12 0 7.33-2.34 8-6.36h7.14c-1.48 7.56-8 11.16-15.43 11.16-9.13 0-16-5.4-16-16.68 0-10.08 6.88-16.86 16.72-16.86s15.24 7 15.24 16a22.21 22.21 0 0 1-.11 2.6zm-24.43-4.62h17.3c-.51-5.88-3.28-9.18-8.23-9.18s-8.35 3.07-9.08 9.19zm50.34 14.1l-1.74 3.42a15.5 15.5 0 0 1-8.49 2c-6 0-11-3.24-11-9.18 0-7.08 6-10.92 19-10.92h2.19v-.73a31.41 31.41 0 0 0-.13-3.48c-.19-2.58-1.93-4.38-6-4.38s-6.24 2.16-6.62 6.12h-7.07c.45-7 6-10.92 13.82-10.92 8.81 0 12.28 3.48 12.86 8.88.13 1.32.19 3 .19 4.5v11.22a51.51 51.51 0 0 0 .64 8.1h-7zm-.06-7.32v-2.94c-8.29-.6-13.7 1.14-13.7 6 0 3.36 2.38 4.92 6.11 4.92 4.43 0 7.58-2.82 7.58-7.98zm22.88 2.22c0 1.08 0 2 .06 3 .13 1.8 1 2.4 4.05 2.16v4.62a37.23 37.23 0 0 1-4.63.3c-3.73 0-6.24-1.26-6.49-5.34-.06-1.2-.06-2.64-.06-4.56V75.24h7.07zm18.45-.61c0 1.08 0 1.8.06 2.64.26 3.12 1.54 3.78 6.17 3.36v4.56a38.67 38.67 0 0 1-5.21.36c-5.34 0-7.65-1.86-8-6.06-.06-1.08-.06-2.46-.06-4.26V92.34h-4.82v-4.62h4.82V80.1h7v7.62h6.69v4.62h-6.69zm43.47-7.61v17.94h-7.07v-17.22c0-1.5 0-2.88-.13-4.5-.32-3.6-2.38-6.18-7.2-6.12s-8.87 3.6-8.87 13.56v14.28H621V74.94h7.07v17.82l2.32-3.66a13.49 13.49 0 0 1 8.61-2.46c7.33 0 11.51 3.54 12.15 9.12.14 1.62.21 3.05.21 5.63zm-152.18 65.94h-7.78a32.29 32.29 0 0 1-2.25-9.84c-.58-4.38-2.32-7.14-6.37-7.38-1.09-.06-2.19-.06-3.28-.06h-6.88v17.28h-7.07v-41.4h15.3a49.8 49.8 0 0 1 6.11.24c6.43.78 11.25 4 11.25 11 0 5.4-3.54 8.58-8.23 9.9 4 1.62 5.66 5.22 6.11 9.54.51 5.26 1.29 8.44 3.09 10.72zM480 145a36.88 36.88 0 0 0 4-.12c3.86-.36 6.75-2.4 6.75-6.78s-2.38-6.18-6.17-6.66a25.83 25.83 0 0 0-4.12-.24h-7.84V145zm54 8.23h-24.5c.58 7.62 4.31 10.14 8.94 10.14 4.12 0 7.33-2.34 8-6.36h7.14c-1.48 7.56-8 11.16-15.43 11.16-9.13 0-16-5.4-16-16.68 0-10.08 6.88-16.86 16.72-16.86s15.24 7 15.24 16a22.21 22.21 0 0 1-.11 2.6zm-24.43-4.62h17.3c-.51-5.88-3.28-9.18-8.23-9.18s-8.34 3.07-9.12 9.19zm55.25-4.02h-7.2c-.71-3.36-2.83-5.34-6.3-5.34s-5 1.74-5 4.14c0 2.88 2.51 4.08 7.59 5.34 7.46 1.8 11.38 4.56 11.38 10.2 0 6.18-5.85 9.24-13.31 9.24s-13.18-3.18-14.15-10.38H545c.84 4.08 3.73 5.7 7.27 5.7 3.28 0 5.92-1.32 5.92-4.08s-2.31-4.26-8.1-5.7c-6.24-1.5-10.87-4-10.87-9.54 0-5.94 5-9.54 12.6-9.54 7.86.01 12.18 4.15 13 9.96zm35.88 8.64h-24.5c.58 7.62 4.31 10.14 8.94 10.14 4.12 0 7.33-2.34 8-6.36h7.14c-1.48 7.56-8 11.16-15.43 11.16-9.13 0-16-5.4-16-16.68 0-10.08 6.88-16.86 16.72-16.86s15.24 7 15.24 16a22.21 22.21 0 0 1-.11 2.6zm-24.43-4.62h17.3c-.51-5.88-3.28-9.18-8.23-9.18s-8.34 3.07-9.08 9.19zm50.33 14.1l-1.74 3.42a15.5 15.5 0 0 1-8.49 2c-6 0-11-3.24-11-9.18 0-7.08 6-10.92 19-10.92h2.19v-.78a31.65 31.65 0 0 0-.13-3.48c-.19-2.58-1.93-4.38-6-4.38s-6.24 2.16-6.62 6.12h-7.07c.45-7 6-10.92 13.83-10.92 8.81 0 12.28 3.48 12.86 8.88.13 1.32.19 3 .19 4.5v11.22a51.53 51.53 0 0 0 .64 8.1h-7zm-.06-7.32v-2.94c-8.29-.6-13.7 1.14-13.7 6 0 3.36 2.38 4.92 6.11 4.92 4.44 0 7.59-2.82 7.59-7.98zm33.69-20.33v5.16c-6.49-.42-10.54 2.7-10.54 10.56v16.56h-7.07v-31.86h7.07v5.4l2.89-4.38a9.28 9.28 0 0 1 5.27-1.8 7 7 0 0 1 2.38.36zm33.37 11.45h-7.14c-1-4.86-3.79-7.08-8-7.08-5 0-8.87 3.66-8.87 11.64 0 8.64 3.86 12.3 8.62 12.3 4.05 0 6.95-2.28 8-6.6h7.2c-1.61 7.62-7.52 11.4-15.56 11.4-8.94 0-15.69-5.28-15.69-16.62 0-10.86 7.59-16.92 16.53-16.92 8.61.01 14.08 4.87 14.91 11.88zm36.46 2.88v17.94H723v-17.22c0-1.5 0-2.88-.13-4.5-.32-3.6-2.38-6.18-7.2-6.12s-8.87 3.6-8.87 13.56v14.28h-7.07v-44.4h7.07v17.82l2.31-3.66a13.5 13.5 0 0 1 8.62-2.46c7.33 0 11.51 3.54 12.15 9.12.12 1.63.18 3.06.18 5.64z"/></svg>